<?xml version="1.0" encoding="utf-8"?>
<!-- Generator: Adobe Illustrator 24.1.0, SVG Export Plug-In . SVG Version: 6.00 Build 0)  -->
<svg version="1.1" id="Layer_1" xmlns="http://www.w3.org/2000/svg" xmlns:xlink="http://www.w3.org/1999/xlink" x="0px" y="0px"
	 viewBox="0 0 1076.4 1078.1" style="enable-background:new 0 0 1076.4 1078.1;" xml:space="preserve">
<style type="text/css">
	.st0{fill:none;stroke:#F2F3F5;stroke-width:0.4;stroke-miterlimit:10;}
	.st1{fill:#F2F3F5;}
</style>
<g>
	<g>
		<g>
			<polygon class="st0" points="283,391.2 574.9,251.8 576.3,252.7 578.2,251.7 580.1,252.7 582.2,251.7 810.2,379.9 810.2,383.4 
				581.8,257.6 579.9,259 578.2,257.3 576,259 574.3,257.6 282.6,394.2 			"/>
			<polygon class="st0" points="284,393.6 284.1,396.4 574.5,262.3 576,263.7 578.4,262.3 580.3,263.6 582.2,262.3 808.4,384.9 
				810.2,383.4 581.8,257.6 579.9,259 578.2,257.3 576,259 574.3,257.6 			"/>
			<polygon class="st0" points="284.1,396.4 291.7,401.1 575.4,278.1 575.4,280.8 578.2,281.5 581.3,280.9 581.3,278.1 801,390.9 
				805,387.8 806.5,386.6 808.4,384.9 582.2,262.3 580.3,263.6 578.4,262.3 576,263.7 574.5,262.3 			"/>
			<polyline class="st0" points="799.6,394.2 801,390.9 581.3,278.1 581.3,280.9 578.2,281.5 575.4,280.8 575.4,278.1 291.7,401.1 
				292.9,403.5 292.9,405 575.4,284.9 578.3,286.4 			"/>
			<polygon class="st0" points="289.1,384.1 575.4,245.5 577.5,247.2 580,245.6 582.4,247.2 585,245.6 807.4,372.2 806.5,373.2 
				585,247.7 581.9,249.1 579.9,247.8 577.4,249.1 575,247.5 290,385 			"/>
			<polyline class="st0" points="578.3,286.4 575.4,284.9 295.4,403.9 295.4,429.9 576.4,328.9 577.6,328.9 578.9,328.9 
				580.2,328.9 799,420.9 799.6,394.2 			"/>
			<polygon class="st0" points="290.4,384.8 290.4,387.7 574.9,251.8 576.3,252.7 578.2,251.7 580.1,252.7 582.2,251.7 805.9,377.5 
				805.9,372.9 585,247.7 581.9,249.1 579.9,247.8 577.4,249.1 575,247.5 			"/>
			<g>
				<polygon class="st0" points="306.9,403.2 318,398.7 318.1,421.6 306.9,425.8 				"/>
				<line class="st0" x1="306.9" y1="409" x2="318" y2="405"/>
				<line class="st0" x1="306.9" y1="416.6" x2="318.1" y2="412.4"/>
				<line class="st0" x1="312.5" y1="400.9" x2="312.5" y2="423.7"/>
			</g>
			<g>
				<polygon class="st0" points="330.7,393.7 336.6,391.1 336.6,415.1 330.7,417.2 				"/>
				<line class="st0" x1="330.7" y1="400" x2="336.6" y2="397.6"/>
				<line class="st0" x1="330.7" y1="407.6" x2="336.6" y2="405.3"/>
			</g>
			<g>
				<polygon class="st0" points="344.2,387.9 350.5,385.4 350.5,410.1 344.2,412.4 				"/>
				<line class="st0" x1="344.2" y1="394.5" x2="350.5" y2="392"/>
				<line class="st0" x1="344.2" y1="402.4" x2="350.5" y2="400.2"/>
			</g>
			<g>
				<polygon class="st0" points="358.7,381.8 365.5,379.1 365.5,404.7 358.7,407.2 				"/>
				<line class="st0" x1="358.7" y1="388.7" x2="365.5" y2="386"/>
				<line class="st0" x1="358.7" y1="397" x2="365.5" y2="394.6"/>
			</g>
			<g>
				<polygon class="st0" points="374.5,375.5 381.5,372.9 381.5,399 374.5,401.5 				"/>
				<line class="st0" x1="374.7" y1="382" x2="381.3" y2="379.5"/>
				<line class="st0" x1="374.7" y1="390.8" x2="381.3" y2="388.6"/>
			</g>
			<g>
				<polygon class="st0" points="390.9,368.7 398.4,365.9 398.6,392.8 390.9,395.6 				"/>
				<line class="st0" x1="390.9" y1="375.4" x2="398.4" y2="372.8"/>
				<line class="st0" x1="390.9" y1="385" x2="398.5" y2="382.4"/>
			</g>
			<g>
				<polygon class="st0" points="408.9,361.4 416.7,358 416.7,386.3 408.9,389.1 				"/>
				<line class="st0" x1="408.9" y1="368.2" x2="416.7" y2="365.1"/>
				<line class="st0" x1="408.9" y1="378.1" x2="416.7" y2="375.2"/>
			</g>
			<g>
				<polygon class="st0" points="427.7,353.6 436.8,349.8 436.8,379.1 427.7,382.4 				"/>
				<line class="st0" x1="427.7" y1="360.7" x2="436.8" y2="357.4"/>
				<line class="st0" x1="427.7" y1="370.7" x2="436.8" y2="367.2"/>
			</g>
			<g>
				<polygon class="st0" points="448.7,344.8 458.4,340.8 458.4,371.4 448.7,374.8 				"/>
				<line class="st0" x1="448.7" y1="352.5" x2="458.4" y2="349.1"/>
				<line class="st0" x1="448.7" y1="362.9" x2="458.2" y2="359.9"/>
			</g>
			<g>
				<polygon class="st0" points="471.2,335.3 481.4,331.1 481.4,363.1 471.2,366.7 				"/>
				<line class="st0" x1="471.2" y1="343.3" x2="481.4" y2="339.4"/>
				<line class="st0" x1="471.2" y1="354.3" x2="481.4" y2="350.7"/>
			</g>
			<g>
				<polygon class="st0" points="495.7,325.5 506.6,320.9 506.6,354 495.7,357.9 				"/>
				<line class="st0" x1="495.7" y1="333.5" x2="506.6" y2="329.2"/>
				<line class="st0" x1="495.7" y1="345" x2="506.6" y2="340.8"/>
			</g>
			<g>
				<polygon class="st0" points="531.9,310.5 559.3,299.3 559.3,335.1 531.9,345 				"/>
				<line class="st0" x1="531.9" y1="319.4" x2="559.3" y2="308.3"/>
				<line class="st0" x1="531.9" y1="331.1" x2="559.3" y2="320.5"/>
				<line class="st0" x1="545.2" y1="305" x2="545.2" y2="340.2"/>
			</g>
			<g>
				<polygon class="st0" points="595.7,301.1 618.2,312.1 618.2,344.9 595.7,335.5 				"/>
				<line class="st0" x1="595.7" y1="310.7" x2="618.2" y2="320.9"/>
				<line class="st0" x1="595.7" y1="322.7" x2="618.2" y2="332.3"/>
				<line class="st0" x1="607.3" y1="306.8" x2="606.9" y2="340.2"/>
			</g>
			<g>
				<polygon class="st0" points="647.4,325.8 656.8,330.2 656.8,361.1 647.4,357.2 				"/>
				<line class="st0" x1="647.4" y1="345.5" x2="656.8" y2="349.6"/>
				<line class="st0" x1="647.4" y1="334.8" x2="656.8" y2="339.4"/>
			</g>
			<g>
				<polygon class="st0" points="668.1,335.7 676.8,340.3 676.8,369.5 668.1,365.9 				"/>
				<line class="st0" x1="668.1" y1="354.5" x2="676.8" y2="358.2"/>
				<line class="st0" x1="668.1" y1="344.1" x2="676.8" y2="348"/>
			</g>
			<g>
				<polygon class="st0" points="687.4,345 695,348.6 695,377.2 687.4,374 				"/>
				<line class="st0" x1="687.4" y1="363.2" x2="695" y2="366.7"/>
				<line class="st0" x1="687.4" y1="352.7" x2="695" y2="356.3"/>
			</g>
			<g>
				<polygon class="st0" points="704.4,353.8 712.1,357.4 712.1,384.4 704.4,381.2 				"/>
				<line class="st0" x1="704.4" y1="361.1" x2="712.1" y2="364.4"/>
				<line class="st0" x1="704.4" y1="370.5" x2="712.1" y2="373.8"/>
			</g>
			<g>
				<polygon class="st0" points="721.1,361.2 727.7,364.8 727.6,390.8 721.1,388.2 				"/>
				<line class="st0" x1="721.1" y1="368.3" x2="727.7" y2="371.3"/>
				<line class="st0" x1="721.1" y1="378.2" x2="727.6" y2="380.7"/>
			</g>
			<g>
				<polygon class="st0" points="736.6,369.1 742.9,372.1 742.9,397.3 736.6,394.7 				"/>
				<line class="st0" x1="736.6" y1="376" x2="742.9" y2="378.7"/>
				<line class="st0" x1="736.6" y1="385" x2="742.9" y2="387.7"/>
			</g>
			<g>
				<polygon class="st0" points="750.3,376 756.1,378.7 756.1,402.9 750.3,400.5 				"/>
				<line class="st0" x1="750.3" y1="383" x2="756.1" y2="385.4"/>
				<line class="st0" x1="750.3" y1="391.3" x2="756.1" y2="393.8"/>
			</g>
			<g>
				<polygon class="st0" points="763.4,382.3 768.8,385 768.8,408.2 763.4,406 				"/>
				<line class="st0" x1="763.4" y1="388.8" x2="768.8" y2="391.1"/>
				<line class="st0" x1="763.4" y1="396.9" x2="768.8" y2="399.1"/>
			</g>
			<g>
				<polygon class="st0" points="776.1,388 781.5,390.7 781.5,413.6 776.1,411.3 				"/>
				<line class="st0" x1="776.1" y1="394.2" x2="781.5" y2="396.9"/>
				<line class="st0" x1="776.1" y1="402.6" x2="781.5" y2="405"/>
			</g>
			<g>
				<polygon class="st0" points="788.1,394 793.3,396.4 792.8,418.3 787.7,416.2 				"/>
				<line class="st0" x1="788" y1="400.1" x2="793.1" y2="402.3"/>
				<line class="st0" x1="788" y1="407.4" x2="793" y2="409.6"/>
			</g>
			<polygon class="st0" points="290.4,431.7 576.4,328.9 580.2,328.9 803,422.5 803,424.4 580.2,331.1 576.4,331.1 292.1,432.5 			
				"/>
			<polygon class="st0" points="292.1,432.5 292.1,434.3 576.5,334.6 580.2,334.6 801.6,425.9 801.6,423.8 580.2,331.1 576.4,331.1 
							"/>
			<polygon class="st0" points="292.1,434.3 293.3,435.4 576.4,337.3 580,337.3 800.1,427 800.1,425.3 580.2,334.6 576.5,334.6 			
				"/>
			<polygon class="st0" points="292.9,403.5 292.9,405 294.2,404.4 294.2,430.4 290.4,431.7 292.1,432.5 292.1,434.3 293.3,435.4 
				293.4,437 253.8,450.7 253.8,439.5 252.9,439.5 252.9,436.3 254.6,436.2 254.5,419.5 252.9,420.1 252.9,418.9 			"/>
			<polygon class="st0" points="252.9,436.3 254.6,436.2 255.3,435.4 257.8,435.4 294.2,422.3 294.2,425.8 257.8,438.6 255,438.7 
				253.8,439.5 252.9,439.5 			"/>
			<polyline class="st0" points="255,438.7 254.9,450.3 257.8,449.3 257.8,418.4 255.1,419.3 255.3,435.4 254.6,436.2 252.9,436.3 
				252.9,439.5 253.8,439.5 			"/>
			<line class="st0" x1="257.8" y1="418.4" x2="292.9" y2="405"/>
			<polygon class="st0" points="263.1,422 266.3,420.7 266.3,432.3 263.1,433.5 			"/>
			<polygon class="st0" points="268.2,420 273.6,417.8 273.6,429.7 268.2,431.6 			"/>
			<polygon class="st0" points="278.3,415.6 282,414.1 282,426.7 278.3,428 			"/>
			<polygon class="st0" points="284,413.5 289.8,411 289.8,423.9 284.1,425.9 			"/>
			<line class="st0" x1="263.1" y1="428" x2="266.3" y2="426.7"/>
			<line class="st0" x1="268.2" y1="426.2" x2="273.6" y2="424.1"/>
			<line class="st0" x1="278.3" y1="421.9" x2="282" y2="420.7"/>
			<line class="st0" x1="284" y1="419.5" x2="289.8" y2="417.3"/>
			<line class="st0" x1="286.8" y1="412.3" x2="286.9" y2="424.9"/>
			<line class="st0" x1="270.7" y1="419" x2="270.9" y2="430.7"/>
			<polygon class="st0" points="230,458.9 293.4,437 293.4,446.2 285.5,445.3 229.9,463.7 			"/>
			<line class="st0" x1="229.9" y1="459.9" x2="293.4" y2="438.4"/>
			<polygon class="st0" points="224.6,466.4 229,466.4 286.1,448 296.1,449 296.1,447.5 285.6,446.2 			"/>
			<polygon class="st0" points="229.9,466.1 229,466.4 232.4,467.5 287.3,450.4 295,450.9 295,448.9 286.1,448 			"/>
			<polyline class="st0" points="232.5,470 288.7,452.6 295,453 295,450.9 287.3,450.4 232.4,467.5 232.9,468.4 			"/>
			<line class="st0" x1="232.9" y1="468.4" x2="290.3" y2="450.6"/>
			<polygon class="st0" points="232.5,470 232.2,470.9 233,471.3 289.5,454.1 295,454.5 295,453 288.7,452.6 			"/>
			<polygon class="st0" points="233,473.2 290.6,456.4 295,456.5 295,454.5 289.5,454.1 233,471.3 			"/>
			<path class="st0" d="M246.8,469.8c0,0-2.1,4.8,0.8,6.1l0.3,52.3h2.5l0-60l-2.9,0.9L246.8,469.8z"/>
			<path class="st0" d="M266.8,464.2c0,0-2.5,3.3,0.6,5.7l-0.1,56.4h2.5l0.1-63.7l-2,0.6L266.8,464.2z"/>
			<path class="st0" d="M288.9,456.9c0,0-2.3,4.2,0.7,6l0,60.3h2.9l0.1-66.8l-2,0L288.9,456.9z"/>
			<polygon class="st0" points="292.5,524.1 291.7,524.1 288.3,524.1 288.3,523.3 292.5,523.3 			"/>
			<polygon class="st0" points="231,534 291.7,527.6 291.7,529.4 231.5,535.9 230.5,535.1 			"/>
			<polygon class="st0" points="231.5,535.9 231.5,538.9 289.3,533 289.3,532.3 291.7,532 291.7,529.4 			"/>
			<polygon class="st0" points="291.7,524.1 291.7,532 293.8,531.3 293.8,524.1 			"/>
			<polygon class="st0" points="246,529.1 246,532.4 250.4,531.9 250.4,529.1 			"/>
			<polygon class="st0" points="250.4,528.1 250.4,529.1 246.7,529.1 246.7,528.1 			"/>
			<polygon class="st0" points="265.3,527.6 269.8,527.6 269.8,529.9 265.3,530.4 			"/>
			<polygon class="st0" points="287.3,525.4 291.7,525.4 291.7,527.6 287.2,528 			"/>
			<polygon class="st0" points="266.1,526.2 269.8,526.2 269.8,527.6 266.1,527.6 			"/>
			<polygon class="st0" points="288.3,524.1 287.3,524.1 287.3,525.4 291.7,525.4 291.7,524.1 			"/>
			<polygon class="st0" points="234.9,483 236.8,482.7 236.8,502.4 234.9,502.7 			"/>
			<polygon class="st0" points="240,481.8 243.8,481.1 243.8,501.4 240,502 			"/>
			<polygon class="st0" points="245.8,480.7 247.6,480.1 247.8,500.7 245.8,501 			"/>
			<polygon class="st0" points="253,477.6 255.2,477.3 255.2,498.4 253,498.7 			"/>
			<polygon class="st0" points="258.7,476.4 263,475.6 263,497.3 258.7,497.9 			"/>
			<polygon class="st0" points="265.2,475.2 267.3,474.6 267.3,496.7 265.2,496.9 			"/>
			<polygon class="st0" points="272.5,472.5 275.7,471.7 275.7,494.6 272.5,494.9 			"/>
			<polygon class="st0" points="279.1,471.2 284,470.3 284,493 279.1,493.7 			"/>
			<polygon class="st0" points="286.7,469.7 289.5,468.8 289.5,492.3 286.7,492.4 			"/>
			<g>
				<polygon class="st0" points="234.5,504.9 237.3,504.6 237.3,508.7 234.5,509.1 				"/>
				<polygon class="st0" points="238.8,504 244.1,503.3 244.1,507.4 238.8,508.2 				"/>
				<polygon class="st0" points="245.1,503 247.7,502.7 247.7,506.8 245.1,507.2 				"/>
			</g>
			<g>
				<polygon class="st0" points="252.8,501.3 255.7,500.9 255.7,505.1 252.8,505.5 				"/>
				<polygon class="st0" points="257.4,500.2 263.2,499.4 263.2,504.1 257.4,504.9 				"/>
				<polygon class="st0" points="264.3,499.1 267.3,498.7 267.3,503.3 264.3,503.7 				"/>
			</g>
			<g>
				<polygon class="st0" points="272,497.5 275.3,497.2 275.3,502 272,502.4 				"/>
				<polygon class="st0" points="278,496.4 283.8,495.4 283.8,500.4 278,501.3 				"/>
				<polygon class="st0" points="285.3,495.2 288.6,494.8 288.6,499.7 285.3,500.1 				"/>
			</g>
			<line class="st0" x1="234.9" y1="487.1" x2="236.9" y2="486.8"/>
			<line class="st0" x1="234.9" y1="495" x2="236.8" y2="494.7"/>
			<line class="st0" x1="240" y1="486" x2="243.8" y2="485.2"/>
			<line class="st0" x1="240" y1="494.1" x2="243.8" y2="493.5"/>
			<line class="st0" x1="245.8" y1="484.7" x2="247.6" y2="484.5"/>
			<line class="st0" x1="245.8" y1="492.7" x2="247.7" y2="492.3"/>
			<line class="st0" x1="253" y1="482.5" x2="255.2" y2="482.4"/>
			<line class="st0" x1="253" y1="490.7" x2="255.2" y2="490.6"/>
			<line class="st0" x1="258.7" y1="481.1" x2="263" y2="480.4"/>
			<line class="st0" x1="258.7" y1="489.3" x2="263" y2="488.7"/>
			<line class="st0" x1="265.2" y1="479.8" x2="267.3" y2="479.5"/>
			<line class="st0" x1="265.2" y1="488.4" x2="267.4" y2="488.1"/>
			<line class="st0" x1="272.5" y1="477.6" x2="275.7" y2="477.1"/>
			<line class="st0" x1="272.5" y1="486.4" x2="275.7" y2="486.1"/>
			<line class="st0" x1="279.1" y1="476.1" x2="284" y2="475.3"/>
			<line class="st0" x1="279.1" y1="485.6" x2="284" y2="484.9"/>
			<line class="st0" x1="286.7" y1="474.5" x2="289.5" y2="473.9"/>
			<line class="st0" x1="286.7" y1="484.1" x2="289.5" y2="483.6"/>
			<polygon class="st0" points="291,537.4 290.8,577.6 231.5,577.2 231.5,538.9 289.3,533 289.3,535.5 290,535.5 290,537.4 			"/>
			<polygon class="st0" points="234.1,542.7 247.7,541.5 247.7,575 234.1,574.9 			"/>
			<polygon class="st0" points="252.3,541.1 268.4,540.1 268.4,574.9 252.3,574.7 			"/>
			<polygon class="st0" points="274,539.8 289.1,538.5 288.8,575 274.1,575 			"/>
			<polygon class="st0" points="234.5,510.9 237.5,510.5 237.7,533.3 234.7,533.5 			"/>
			<polygon class="st0" points="238.4,510 244.1,509.2 244.1,532.6 238.7,533.2 			"/>
			<polygon class="st0" points="245,509 247.8,508.6 247.9,528.1 246.7,528.1 246.7,529.1 246,529.1 246,532.4 245.1,532.5 			"/>
			<line class="st0" x1="234.5" y1="516" x2="237.5" y2="515.5"/>
			<line class="st0" x1="234.5" y1="523.8" x2="237.6" y2="523.4"/>
			<line class="st0" x1="238.4" y1="515.2" x2="244.1" y2="514.4"/>
			<line class="st0" x1="238.5" y1="523.1" x2="244.1" y2="522.6"/>
			<line class="st0" x1="245.2" y1="513.7" x2="247.8" y2="513.4"/>
			<line class="st0" x1="245.1" y1="521.7" x2="247.7" y2="521.6"/>
			<line class="st0" x1="234.1" y1="552.2" x2="247.9" y2="551.3"/>
			<line class="st0" x1="234.1" y1="563.3" x2="247.7" y2="562.7"/>
			<line class="st0" x1="252.2" y1="551.4" x2="268.3" y2="550.5"/>
			<line class="st0" x1="252.3" y1="562.1" x2="268.6" y2="561.8"/>
			<line class="st0" x1="274" y1="550.3" x2="289.1" y2="549.4"/>
			<line class="st0" x1="274.2" y1="561.8" x2="289" y2="561.7"/>
			<g>
				<polygon class="st0" points="253.1,507.7 255.6,507.4 255.6,531.4 253,531.7 				"/>
				<polygon class="st0" points="257.2,506.9 263.1,506 263.3,530.6 257.2,531.2 				"/>
				<polygon class="st0" points="264.2,505.7 267.3,505.3 267.3,526.2 266.1,526.2 266.1,527.6 265.3,527.6 265.3,530.4 
					264.3,530.5 				"/>
				<line class="st0" x1="253.1" y1="512.3" x2="255.6" y2="512.1"/>
				<line class="st0" x1="253" y1="521.2" x2="255.6" y2="521"/>
				<line class="st0" x1="257.2" y1="511.8" x2="263.3" y2="511.1"/>
				<line class="st0" x1="257.4" y1="520.8" x2="263.1" y2="520.3"/>
				<line class="st0" x1="264.4" y1="510.6" x2="267.2" y2="510.4"/>
				<line class="st0" x1="264.3" y1="520" x2="267.3" y2="519.9"/>
			</g>
			<g>
				<polygon class="st0" points="272.8,504.5 275.3,504.2 275.3,529.3 272.7,529.6 				"/>
				<polygon class="st0" points="277.7,503.4 283.4,502.6 283.3,528.4 277.7,529 				"/>
				<line class="st0" x1="272.8" y1="509.3" x2="275.3" y2="509.1"/>
				<line class="st0" x1="272.6" y1="517.7" x2="275.1" y2="517.7"/>
				<line class="st0" x1="277.7" y1="508.4" x2="283.3" y2="507.8"/>
				<line class="st0" x1="277.5" y1="517.7" x2="283.2" y2="517.5"/>
				<path class="st0" d="M289.1,506.7"/>
				<path class="st0" d="M286.2,507"/>
				<path class="st0" d="M289.1,515.7"/>
				<path class="st0" d="M286.2,515.9"/>
			</g>
			<polygon class="st0" points="285.6,502 288.4,501.5 288.3,523.3 288.3,524.1 287.3,524.1 287.3,525.4 287.2,528 285.5,528.2 			
				"/>
			<line class="st0" x1="285.6" y1="507.2" x2="288.3" y2="506.8"/>
			<line class="st0" x1="285.5" y1="516.1" x2="288.3" y2="515.9"/>
			<polygon class="st0" points="581.3,284.8 581.3,329.4 580.2,328.9 579,328.9 579,331.1 579,334.6 578.9,337.3 580,337.3 
				579.5,504.3 578.3,504.3 577,504.3 576.5,337.3 577.5,337.3 577.6,334.6 577.6,331.1 577.6,328.9 576.4,328.9 575.4,329.3 
				575.4,284.9 578.3,286.4 			"/>
			<polygon class="st0" points="291,537.4 576.9,514.7 579.6,514.7 805.2,534 805.2,532.4 579.4,509.5 577.3,509.5 290,535.5 
				290,537.4 			"/>
			<polyline class="st0" points="601.4,507.3 629.1,510.4 805.7,530.1 805.2,532.4 579.4,509.5 577,509.5 577.1,514.7 291,537.4 
				290,537.4 290,535.5 289.3,535.5 289.3,532.3 291.7,532 293.8,531.3 301.8,530.9 301.8,531.6 314.8,530.7 314.8,529.4 
				346.1,526.9 377.7,523.8 522,509.5 522,514.5 555,511.5 555,506 577,504.3 579.5,504.3 			"/>
			<polygon class="st0" points="301.1,544.4 318.8,543.6 318.8,573.1 301.1,573.1 			"/>
			<polygon class="st0" points="325,542.9 347.7,541.7 347.7,573.1 325,572.8 			"/>
			<polygon class="st0" points="353.7,541.1 379.7,540.1 379.7,573.5 353.7,573.5 			"/>
			<polygon class="st0" points="386.1,539.1 415.4,537.8 415.4,573.8 386.7,573.8 			"/>
			<polygon class="st0" points="424.4,536.8 459.1,535.2 459.1,573.8 424.4,573.8 			"/>
			<path class="st0" d="M468.1,534c0,0,40.7-2.6,40.4-2.6s0,42.9,0,42.9l-40.4,0.1V534z"/>
			<polygon class="st0" points="522.2,530.6 562.8,528.2 562.8,574.4 522.2,574.4 			"/>
			<line class="st0" x1="306.4" y1="544.2" x2="306.4" y2="573.1"/>
			<line class="st0" x1="314.5" y1="543.8" x2="314.6" y2="573.1"/>
			<line class="st0" x1="301.1" y1="555.2" x2="318.8" y2="554.9"/>
			<line class="st0" x1="301.1" y1="566" x2="318.8" y2="566"/>
			<line class="st0" x1="332.2" y1="542.5" x2="332.2" y2="572.8"/>
			<line class="st0" x1="341.4" y1="542" x2="341.4" y2="573.1"/>
			<line class="st0" x1="325" y1="554.4" x2="347.7" y2="553.9"/>
			<line class="st0" x1="325" y1="564.2" x2="347.7" y2="564.3"/>
			<line class="st0" x1="361.9" y1="540.8" x2="361.9" y2="573.5"/>
			<line class="st0" x1="372.2" y1="540.4" x2="372.3" y2="573.5"/>
			<line class="st0" x1="353.7" y1="553.4" x2="379.7" y2="552.9"/>
			<line class="st0" x1="353.7" y1="563.2" x2="379.7" y2="562.8"/>
			<line class="st0" x1="394.2" y1="538.8" x2="394.4" y2="573.8"/>
			<line class="st0" x1="406.1" y1="538.2" x2="406.6" y2="573.8"/>
			<line class="st0" x1="386.4" y1="552" x2="415.4" y2="551.6"/>
			<line class="st0" x1="386.6" y1="563.5" x2="415.4" y2="563.2"/>
			<line class="st0" x1="435.2" y1="536.3" x2="435.3" y2="573.8"/>
			<line class="st0" x1="448.8" y1="535.7" x2="448.8" y2="574"/>
			<line class="st0" x1="424.4" y1="550.4" x2="459.1" y2="549.5"/>
			<line class="st0" x1="424.4" y1="562.6" x2="459.1" y2="562.1"/>
			<line class="st0" x1="480.2" y1="533.2" x2="480" y2="574.3"/>
			<line class="st0" x1="496.6" y1="532.2" x2="496.5" y2="574.4"/>
			<line class="st0" x1="468.1" y1="548.9" x2="508.4" y2="547.6"/>
			<line class="st0" x1="468.1" y1="562.1" x2="508.5" y2="561.7"/>
			<line class="st0" x1="532.1" y1="530" x2="532.3" y2="574.4"/>
			<line class="st0" x1="551.5" y1="528.9" x2="551.2" y2="574.4"/>
			<line class="st0" x1="522.5" y1="546.3" x2="562.8" y2="544.8"/>
			<line class="st0" x1="522.2" y1="559.8" x2="562.8" y2="559.2"/>
			<line class="st0" x1="533.7" y1="419.2" x2="556.2" y2="413.7"/>
			<line class="st0" x1="533.7" y1="428.6" x2="556.2" y2="423.8"/>
			<line class="st0" x1="579.6" y1="509.5" x2="579.6" y2="514.7"/>
			<g>
				<polygon class="st0" points="309.8,438.2 317.3,435.7 318.1,490.9 314.3,490.4 309.7,491.2 				"/>
				<polygon class="st0" points="299.4,493 309.7,491.2 314.3,490.4 318.1,490.9 319.6,491.1 319.6,492.3 314.5,491.8 300.6,494.1 
									"/>
				<polygon class="st0" points="300.6,494.1 300.8,495.5 315,493.1 319.2,493.4 319.2,492.2 314.5,491.8 				"/>
				<polygon class="st0" points="301.8,495.3 302,496.9 315.1,494.8 319.2,494.9 319.2,493.4 315,493.1 				"/>
				<line class="st0" x1="315" y1="436.5" x2="315.2" y2="459.5"/>
				<line class="st0" x1="315.3" y1="462.3" x2="315.6" y2="490.6"/>
				<line class="st0" x1="309.9" y1="444.7" x2="317.4" y2="442.7"/>
				<line class="st0" x1="309.7" y1="453.7" x2="317.5" y2="451.2"/>
				<line class="st0" x1="309.7" y1="472.2" x2="317.8" y2="470.3"/>
				<line class="st0" x1="309.6" y1="479.1" x2="317.9" y2="477.3"/>
				<line class="st0" x1="309.6" y1="485.6" x2="318" y2="484.3"/>
				<polygon class="st0" points="309.8,460.8 317.6,458.9 317.6,459.8 310.6,461.6 309.8,461.3 				"/>
				<polygon class="st0" points="310.6,461.6 310.6,462.3 317.6,460.7 317.6,459.8 				"/>
				<polygon class="st0" points="310.6,462.3 310.9,463.2 317.6,461.6 317.6,460.7 				"/>
				<line class="st0" x1="311.6" y1="437.6" x2="311.6" y2="460.3"/>
				<line class="st0" x1="312" y1="462.9" x2="312.1" y2="490.8"/>
				<polygon class="st0" points="332.2,429.9 348,425.1 348,515.7 347.1,515.7 347.1,516.7 346.2,516.7 346.2,518 331.9,519.3 
					331.9,493.5 332.5,493.5 332.5,491.8 331.9,491.8 331.9,490.5 332.5,490.4 332.5,488.9 				"/>
				<polygon class="st0" points="332.6,454.7 348,450.8 348,451.7 333.2,455.5 				"/>
				<polygon class="st0" points="333.2,455.5 333.2,456.5 348,453.1 348,451.7 				"/>
				<polygon class="st0" points="333.2,456.5 333.2,457.6 348,454.1 348,453.1 				"/>
				<line class="st0" x1="338.4" y1="428.1" x2="338.4" y2="453.2"/>
				<line class="st0" x1="344" y1="426.4" x2="344" y2="451.8"/>
				<polygon class="st0" points="332.5,488.8 348,486.2 348,487.2 332.5,489.7 				"/>
				<polygon class="st0" points="332.5,490.4 348,488 348,489.1 333.4,491.6 332.5,491.8 331.9,491.8 331.9,490.5 				"/>
				<polygon class="st0" points="332.5,491.8 332.5,492.8 348,490.4 348,489.1 				"/>
				<line class="st0" x1="338.4" y1="456.5" x2="338.4" y2="487.8"/>
				<line class="st0" x1="344" y1="455.1" x2="344" y2="487.1"/>
				<line class="st0" x1="332.3" y1="438" x2="348" y2="433.6"/>
				<line class="st0" x1="332.3" y1="446.7" x2="348" y2="442.5"/>
				<line class="st0" x1="332.5" y1="473.8" x2="348" y2="470.6"/>
				<line class="st0" x1="332.4" y1="481.1" x2="348" y2="478.2"/>
				<line class="st0" x1="332.4" y1="467" x2="347.8" y2="463.5"/>
				<polygon class="st0" points="306.5,491.7 306.9,435.4 317.3,431.8 318.1,490.9 314.3,490.4 				"/>
				<line class="st0" x1="332" y1="501.5" x2="348" y2="499.4"/>
				<line class="st0" x1="331.9" y1="508.8" x2="348" y2="506.7"/>
				<line class="st0" x1="338.4" y1="491.9" x2="338.4" y2="518.6"/>
				<line class="st0" x1="344" y1="491.2" x2="344" y2="518.2"/>
				<path class="st0" d="M332.2,519.3l-3.4,0.3V428l17.2-5.7c0,0-1.3,2,0,3.5l2-0.6v3.5v87.1l-0.9,0v0.9h-0.9v1.4L332.2,519.3z"/>
				<polygon class="st0" points="328.8,519.5 328.8,528.2 346.1,526.9 346.2,518 				"/>
				<polygon class="st0" points="328.8,519.5 318.1,520.7 318.1,529 328.8,528.2 				"/>
				<polygon class="st0" points="293.8,524.1 301.8,523.3 301.8,523.9 302.9,523.8 302.9,529.5 301.8,529.6 301.8,530.9 
					293.8,531.3 				"/>
				<polygon class="st0" points="303.2,496.7 306,499.4 306,521.6 313.9,520.7 315.4,520.5 318.1,520.7 318.1,494.9 315.1,494.8 
									"/>
				<polygon class="st0" points="309.6,521.2 309.6,502.7 315.4,502 315.4,520.5 313.9,520.7 				"/>
				<line class="st0" x1="312.5" y1="502.4" x2="312.5" y2="520.9"/>
				<line class="st0" x1="309.6" y1="508.6" x2="315.4" y2="508"/>
				<line class="st0" x1="309.6" y1="515.2" x2="315.4" y2="514.8"/>
				<polygon class="st0" points="301.8,523.3 301.8,522.2 306,521.6 315.4,520.5 318.1,520.7 318.1,529.1 314.8,529.4 314.8,530.7 
					301.8,531.6 301.8,529.6 302.9,529.5 302.9,523.8 301.8,523.9 				"/>
				<polygon class="st0" points="304.8,525.3 307.9,524.9 307.9,529.2 304.8,529.4 				"/>
				<polygon class="st0" points="309.2,524.8 312.5,524.4 312.5,528.8 309.2,529 				"/>
				<polygon class="st0" points="348,515.7 352.9,515.6 355.6,515.6 355.6,516.6 352.8,516.6 347.1,516.7 347.1,515.7 				"/>
				<polygon class="st0" points="358.7,516.3 358.7,490.6 379.4,486.8 379.4,511.5 378.7,511.5 378.7,512.5 377.4,512.6 
					377.4,514.6 				"/>
				<line class="st0" x1="366.1" y1="489.2" x2="366.1" y2="515.6"/>
				<line class="st0" x1="373.7" y1="487.9" x2="374.1" y2="514.9"/>
				<line class="st0" x1="358.9" y1="498" x2="379.7" y2="495"/>
				<line class="st0" x1="358.7" y1="506.1" x2="379.4" y2="503.5"/>
				<polygon class="st0" points="335.1,525.2 335.1,521.5 341.3,520.8 341.3,524.6 				"/>
				<polygon class="st0" points="362.8,518.7 370.6,517.8 370.6,521.9 362.8,522.7 				"/>
				<polygon class="st0" points="357.9,484.3 379.4,480.1 379.4,481.6 357.9,485.8 				"/>
				<polygon class="st0" points="358.7,490.6 358.8,488.4 379.4,484.5 379.4,486.8 				"/>
				<polygon class="st0" points="357.9,485.8 357.9,487.4 358.7,488.4 379.4,484.5 379.4,481.6 				"/>
				<polygon class="st0" points="357.9,484.3 358.3,422.3 379.4,415.4 379.4,480.1 				"/>
				<polygon class="st0" points="358.7,450.8 379.4,445.6 379.4,444.6 358.7,449.8 				"/>
				<polygon class="st0" points="358.7,448.5 379.4,443.4 379.4,444.6 358.7,449.8 				"/>
				<polygon class="st0" points="358.4,447.7 379.4,442.3 379.4,443.4 358.7,448.5 				"/>
				<path class="st0" d="M355.6,516.6l0.1-97.7l20.6-6.7c0,0-0.9,3.1,3.1,3.1l0,96.1l-0.8,0.1v1l-1.2,0.1v2.1l-0.1,9.1l-21.7,2.1
					L355.6,516.6z"/>
				<line class="st0" x1="366.7" y1="419.6" x2="366.1" y2="445.7"/>
				<line class="st0" x1="373.4" y1="417.4" x2="373.9" y2="443.7"/>
				<line class="st0" x1="365.9" y1="449" x2="365.7" y2="482.7"/>
				<line class="st0" x1="372.8" y1="447.2" x2="372.9" y2="481.6"/>
				<line class="st0" x1="358.2" y1="461.4" x2="379.4" y2="456.5"/>
				<line class="st0" x1="358.1" y1="468.4" x2="379.4" y2="463.6"/>
				<line class="st0" x1="358" y1="475.6" x2="379.6" y2="471.2"/>
				<line class="st0" x1="358.8" y1="429.1" x2="379.3" y2="422.3"/>
				<line class="st0" x1="358.4" y1="439.5" x2="379.4" y2="433"/>
				<polygon class="st0" points="397.2,514.7 405.4,513.9 405.4,518.1 397.2,518.9 				"/>
				<polygon class="st0" points="435.3,510.8 444.7,509.7 444.7,514.4 435.3,515.3 				"/>
				<polygon class="st0" points="479.3,505.2 490.3,504.1 490.3,509.3 479.3,510.4 				"/>
				<polygon class="st0" points="533.7,363.9 556.2,357.4 556.2,443.9 533.7,448 				"/>
				<polygon class="st0" points="529.1,448.8 529.1,361.2 556.2,352.5 556.2,357.4 533.7,363.9 533.7,448 				"/>
				<path class="st0" d="M519.6,450.6"/>
				<polygon class="st0" points="561.6,445.2 556.2,443.9 519.2,450.6 519.7,451.8 521.2,451.5 555.8,445.1 561.6,446.4 				"/>
				<polygon class="st0" points="521.2,451.5 521.5,453.8 555.8,447.2 560.1,448 560.1,446.1 555.8,445.1 				"/>
				<polygon class="st0" points="523.2,455.4 555.9,449.5 559.4,450.1 559.4,447.8 555.8,447.2 522.9,453.5 				"/>
				<polygon class="st0" points="315.1,494.8 316.9,497.9 316.9,520.6 318.1,520.7 318.1,494.9 				"/>
				<polygon class="st0" points="552.6,450 555.1,458.4 555.1,492.1 557.9,492.6 557.9,449.8 555.9,449.5 				"/>
				<polygon class="st0" points="524.5,455.2 528.1,463 528.1,495.1 531.3,494.8 531.3,454 				"/>
				<polygon class="st0" points="522.8,495.7 555.1,492.1 555,511.5 522,514.5 522,509.5 522.6,508 				"/>
				<line class="st0" x1="557.9" y1="492.6" x2="557.9" y2="505.8"/>
				<polygon class="st0" points="529.5,498.9 537.7,498 537.7,505.1 529.5,505.8 				"/>
				<polygon class="st0" points="540.4,497.7 548.9,496.8 549.1,504 540.4,504.8 				"/>
				<polygon class="st0" points="534.1,400.7 556.2,394.7 556.2,396.1 534.8,401.7 				"/>
				<polygon class="st0" points="533.7,403.5 556.2,397.8 556.2,399.2 533.7,404.9 				"/>
				<polygon class="st0" points="533.7,402.1 533.7,403.5 556.2,397.8 556.2,396.1 				"/>
				<line class="st0" x1="545.6" y1="360.5" x2="545.6" y2="397.5"/>
				<line class="st0" x1="545.5" y1="401.8" x2="545.5" y2="445.8"/>
				<line class="st0" x1="533.7" y1="376" x2="556.2" y2="369"/>
				<line class="st0" x1="533.7" y1="388.7" x2="556.2" y2="382.7"/>
				<line class="st0" x1="533.7" y1="439" x2="556.2" y2="434.3"/>
				<polygon class="st0" points="537.7,467.1 549.8,465.5 549.8,492.7 537.7,494.1 				"/>
				<line class="st0" x1="543.7" y1="466.3" x2="543.7" y2="493.4"/>
				<line class="st0" x1="537.7" y1="474.6" x2="549.8" y2="473.3"/>
				<line class="st0" x1="537.7" y1="485" x2="549.8" y2="483.7"/>
				<polyline class="st0" points="503.2,511.3 503.2,500 522.8,497.8 522.6,508 522,509.5 555,506 				"/>
				<polygon class="st0" points="471.2,385.7 503.5,374.8 503.5,456.5 471.2,462.5 				"/>
				<polygon class="st0" points="471.2,417.1 503.5,408.5 503.5,410 471.2,418.4 				"/>
				<polygon class="st0" points="471.2,419.9 503.5,411.7 503.5,410 471.2,418.4 				"/>
				<polygon class="st0" points="471.2,421.7 503.5,413.4 503.5,411.7 471.2,419.9 				"/>
				<polygon class="st0" points="471.2,463.7 503.5,457.8 503.5,456.5 471.2,462.5 				"/>
				<polygon class="st0" points="471.2,463.7 471.2,465.4 503.5,459.7 503.5,457.8 				"/>
				<polygon class="st0" points="470.1,468.7 503.5,462.8 503.5,465.1 472.1,470.7 470.1,469.7 				"/>
				<polygon class="st0" points="471.2,465.4 470.5,465.4 470.5,466.3 471.2,466.3 503.5,460.7 503.5,459.7 				"/>
				<polygon class="st0" points="471,468.6 471.2,466.3 503.5,460.7 503.5,462.8 				"/>
				<polygon class="st0" points="357.9,487.4 379.4,483 379.4,481.6 357.9,485.8 				"/>
				<line class="st0" x1="482.2" y1="382.4" x2="482.1" y2="414.2"/>
				<line class="st0" x1="493.1" y1="378.3" x2="493.1" y2="411.2"/>
				<line class="st0" x1="471.2" y1="395.2" x2="503.5" y2="385"/>
				<line class="st0" x1="471.2" y1="406.6" x2="503.5" y2="397.5"/>
				<line class="st0" x1="471.2" y1="434.7" x2="503.5" y2="427.1"/>
				<line class="st0" x1="471.2" y1="443.1" x2="503.5" y2="436.3"/>
				<line class="st0" x1="471.2" y1="452.2" x2="503.5" y2="445.8"/>
				<line class="st0" x1="482.1" y1="418.9" x2="482.1" y2="460.5"/>
				<line class="st0" x1="493" y1="416.2" x2="493.1" y2="458.4"/>
				<polygon class="st0" points="472.1,470.7 472.1,502.9 503.2,500 503.5,465.1 				"/>
				<line class="st0" x1="482.1" y1="469" x2="482.1" y2="502"/>
				<line class="st0" x1="493.4" y1="466.8" x2="493.3" y2="501"/>
				<line class="st0" x1="472.1" y1="479.1" x2="503.5" y2="474.3"/>
				<line class="st0" x1="472.1" y1="490.2" x2="503.2" y2="485.9"/>
				<polygon class="st0" points="503.5,374.8 503.5,370.3 468.3,382.4 467.6,503.3 472.1,502.9 472.1,470.7 470.1,469.7 
					470.1,468.7 471,468.6 471.2,466.3 470.5,466.3 470.5,465.4 471.2,465.4 471.2,385.7 				"/>
				<polygon class="st0" points="454.7,502.8 464.3,501.7 464.3,503.3 454.7,504.4 				"/>
				<path class="st0" d="M453.4,506.1"/>
				<polygon class="st0" points="454.7,504.4 464.3,503.3 464.2,505 454.7,506 				"/>
				<polygon class="st0" points="379.4,511.5 386,511.1 386,512.2 378.7,512.5 378.7,511.5 				"/>
				<polygon class="st0" points="377.4,514.6 386,514.3 386,512.2 377.4,512.6 				"/>
				<polygon class="st0" points="456.2,502.6 456.2,390.1 428.4,398.9 428.4,470.7 428.4,508.4 453.4,506.1 454.7,506 454.7,502.8 
									"/>
				<path class="st0" d="M423.4,395.8l30-9.2c0,0-1.3,3.3,2.8,3.6v112.5l-1.5,0.2v3.2l-26.4,2.4l-5,0.4V395.8z"/>
				<polygon class="st0" points="428.4,428.6 456.2,421.3 456.2,422.3 429.5,429.5 428.4,429.5 				"/>
				<polygon class="st0" points="429.6,430.9 456.2,424.3 456.2,422.3 429.5,429.5 				"/>
				<polygon class="st0" points="429.5,432.5 456.2,426 456.2,424.3 429.6,430.9 				"/>
				<line class="st0" x1="438.6" y1="395.7" x2="438.8" y2="425.9"/>
				<line class="st0" x1="447.9" y1="392.7" x2="447.6" y2="423.6"/>
				<line class="st0" x1="428.4" y1="408.3" x2="456.2" y2="399.7"/>
				<line class="st0" x1="428.4" y1="418.9" x2="456.2" y2="411.1"/>
				<polygon class="st0" points="428.4,470.7 456.2,465.9 456.2,467.6 428.4,472.2 				"/>
				<polygon class="st0" points="428.4,474.3 456.2,469.5 456.2,467.6 428.4,472.2 				"/>
				<polygon class="st0" points="428.4,475.9 456.2,471.4 456.2,469.5 428.4,474.3 				"/>
				<polygon class="st0" points="428.4,477.6 430.1,478.2 456.2,473.9 456.2,471.4 428.4,475.9 				"/>
				<line class="st0" x1="430.1" y1="478.2" x2="430.3" y2="508.2"/>
				<line class="st0" x1="438.7" y1="430.3" x2="438.7" y2="468.9"/>
				<line class="st0" x1="447.7" y1="428.1" x2="447.7" y2="467.4"/>
				<line class="st0" x1="428.4" y1="444.6" x2="456.2" y2="437.8"/>
				<line class="st0" x1="428.4" y1="452.5" x2="456.2" y2="446.6"/>
				<line class="st0" x1="428.4" y1="461.4" x2="456.2" y2="455.6"/>
				<polygon class="st0" points="346.2,518 353.1,518 355.6,518 355.6,516.6 352.8,516.6 346.2,516.7 				"/>
				<polygon class="st0" points="464.3,501.7 467.6,501.7 467.6,503.3 464.3,503.3 				"/>
				<line class="st0" x1="467.6" y1="503.3" x2="467.6" y2="514.9"/>
				<line class="st0" x1="302.9" y1="523.8" x2="314.8" y2="522.4"/>
				<line class="st0" x1="314.9" y1="520.7" x2="314.8" y2="529.2"/>
				<polygon class="st0" points="413.9,508 422,507.3 422,508.4 413.9,509.1 				"/>
				<polygon class="st0" points="413.9,509.1 413.1,509.1 413.1,510.7 422,509.9 422,508.4 				"/>
				<line class="st0" x1="413.1" y1="510.7" x2="413.1" y2="520.5"/>
				<polygon class="st0" points="391.8,410.8 414.8,404 415,507.9 413.9,508 413.9,509.1 413.1,509.1 413.1,510.1 391.2,512.2 				
					"/>
				<line class="st0" x1="522.8" y1="497.8" x2="555" y2="494.1"/>
				<line class="st0" x1="555" y1="494.1" x2="557.8" y2="494.7"/>
				<path class="st0" d="M388.6,512.6V407.2l24.2-7.6c0,0-2,2.8,2,4.5l-23,6.7l-0.6,101.4L388.6,512.6z"/>
				<line class="st0" x1="355.6" y1="516.6" x2="358.7" y2="516.3"/>
				<line class="st0" x1="386" y1="512.2" x2="388.6" y2="512.6"/>
				<polygon class="st0" points="391.7,438.5 414.9,432.3 414.9,433.2 391.7,439.4 				"/>
				<polygon class="st0" points="391.7,439.4 391.7,440.8 414.9,434.7 414.9,433.2 				"/>
				<polygon class="st0" points="392.7,442.2 414.9,436.6 414.9,434.7 392.7,440.5 				"/>
				<line class="st0" x1="400.2" y1="408.5" x2="400.3" y2="436.2"/>
				<line class="st0" x1="407.8" y1="406.1" x2="408" y2="434.1"/>
				<line class="st0" x1="391.8" y1="419.4" x2="414.8" y2="412.5"/>
				<line class="st0" x1="391.7" y1="429.8" x2="414.8" y2="423.2"/>
				<polygon class="st0" points="391.4,477.9 415,473.3 415,474.6 391.4,479 				"/>
				<polygon class="st0" points="391.4,480.4 415,475.9 415,474.6 391.4,479 				"/>
				<polygon class="st0" points="392.6,482.2 415,477.8 415,475.9 391.4,480.4 				"/>
				<polygon class="st0" points="391.4,483.6 393.1,484.5 415,480.4 415,477.8 392.6,482.2 391.4,482.6 				"/>
				<line class="st0" x1="400.3" y1="440.3" x2="400.3" y2="476.2"/>
				<line class="st0" x1="407.9" y1="438.5" x2="407.9" y2="474.8"/>
				<line class="st0" x1="391.6" y1="453.1" x2="414.9" y2="447.7"/>
				<line class="st0" x1="391.5" y1="461.1" x2="415" y2="456"/>
				<line class="st0" x1="391.4" y1="468.9" x2="415" y2="464.4"/>
				<line class="st0" x1="391.2" y1="492.2" x2="415" y2="488.4"/>
				<line class="st0" x1="391.2" y1="501.3" x2="415.1" y2="498.3"/>
				<line class="st0" x1="400.3" y1="483.3" x2="400.3" y2="511.3"/>
				<line class="st0" x1="407.9" y1="481.7" x2="407.9" y2="510.6"/>
				<line class="st0" x1="388.6" y1="512.6" x2="388.6" y2="522.7"/>
				<line class="st0" x1="423.4" y1="508.8" x2="423.4" y2="519.3"/>
				<line class="st0" x1="429.5" y1="432.5" x2="430.2" y2="470.4"/>
				<line class="st0" x1="392.7" y1="442.2" x2="392.7" y2="477.6"/>
				<line class="st0" x1="358.7" y1="450.8" x2="359.1" y2="484"/>
				<line class="st0" x1="438.5" y1="476.8" x2="438.7" y2="507.4"/>
				<line class="st0" x1="430.2" y1="485.7" x2="456.2" y2="482.4"/>
				<line class="st0" x1="430.2" y1="496.6" x2="456.2" y2="493.8"/>
				<line class="st0" x1="448" y1="475.2" x2="448.2" y2="506.6"/>
				<line class="st0" x1="554" y1="454.7" x2="531.3" y2="458.1"/>
				<line class="st0" x1="533.7" y1="457.6" x2="533.7" y2="494.4"/>
				<line class="st0" x1="533.6" y1="460.1" x2="554.7" y2="457"/>
				<line class="st0" x1="307.9" y1="498.4" x2="307.9" y2="521.4"/>
				<line class="st0" x1="307.7" y1="498.5" x2="316.5" y2="497.2"/>
				<path class="st0" d="M346,422.3c0,0,2.4-4.6,7.3-3l-0.5,106.9"/>
				<path class="st0" d="M376.3,412.3c0,0,2.7-6.5,9.7-3.8v114.7"/>
				<path class="st0" d="M412.8,399.5c0,0,3-5.3,8.9-3.8l0.4,123.8"/>
				<path class="st0" d="M453.4,386.5c0,0,2.9-9.1,11.6-3.5l-0.8,132.1l0.1-10.2l-10.8,1.1v10.2"/>
				<line class="st0" x1="464.2" y1="505" x2="467.6" y2="504.9"/>
				<line class="st0" x1="422" y1="508.4" x2="423.4" y2="508.8"/>
			</g>
			<line class="st0" x1="238" y1="542.4" x2="238" y2="574.9"/>
			<line class="st0" x1="244.1" y1="541.7" x2="244.1" y2="575"/>
			<line class="st0" x1="256.8" y1="540.8" x2="256.8" y2="574.8"/>
			<line class="st0" x1="264.5" y1="540.3" x2="264.6" y2="574.9"/>
			<line class="st0" x1="278.7" y1="539.4" x2="278.4" y2="575"/>
			<line class="st0" x1="284.9" y1="538.8" x2="284.5" y2="575"/>
			<polygon class="st0" points="591.3,527.2 634.5,530.5 634.5,575.1 591.3,574.8 			"/>
			<polygon class="st0" points="643.1,531 679.6,533.9 679.6,575.2 643.1,575 			"/>
			<polygon class="st0" points="685.7,534.4 714.9,536.5 714.9,575.4 685.7,575.1 			"/>
			<polygon class="st0" points="722.4,537 749.5,538.8 749.5,575 722,574.8 			"/>
			<polygon class="st0" points="756.4,539.1 775.6,540.5 775.6,575.2 756.4,574.9 			"/>
			<polygon class="st0" points="780.2,540.8 799.5,542.2 799.5,575.3 780,575.2 			"/>
			<line class="st0" x1="603.8" y1="528.2" x2="604.3" y2="574.7"/>
			<line class="st0" x1="620.5" y1="529.4" x2="620.5" y2="575"/>
			<line class="st0" x1="591.3" y1="545.9" x2="634.5" y2="547.4"/>
			<line class="st0" x1="591.3" y1="559.2" x2="634.5" y2="559.8"/>
			<line class="st0" x1="653.6" y1="531.8" x2="653.8" y2="575.1"/>
			<line class="st0" x1="667.8" y1="533" x2="668.1" y2="575.1"/>
			<line class="st0" x1="643.1" y1="546.3" x2="679.6" y2="548.2"/>
			<line class="st0" x1="643.1" y1="560.1" x2="679.6" y2="560.6"/>
			<line class="st0" x1="693.8" y1="535" x2="693.8" y2="575"/>
			<line class="st0" x1="705.9" y1="535.8" x2="706.1" y2="575.3"/>
			<line class="st0" x1="685.7" y1="548.4" x2="714.9" y2="549.6"/>
			<line class="st0" x1="685.7" y1="560.2" x2="714.9" y2="560.9"/>
			<line class="st0" x1="722.2" y1="549.9" x2="749.5" y2="551.3"/>
			<line class="st0" x1="722.1" y1="560.9" x2="749.5" y2="561.6"/>
			<line class="st0" x1="731.2" y1="537.8" x2="731.1" y2="574.8"/>
			<line class="st0" x1="740.8" y1="538.4" x2="740.4" y2="574.9"/>
			<line class="st0" x1="762.2" y1="539.8" x2="762" y2="575"/>
			<line class="st0" x1="769.9" y1="540.2" x2="770" y2="575"/>
			<line class="st0" x1="756.4" y1="550" x2="775.6" y2="551"/>
			<line class="st0" x1="756.4" y1="559.7" x2="775.6" y2="560.2"/>
			<line class="st0" x1="786.3" y1="541.3" x2="786" y2="575.2"/>
			<line class="st0" x1="794" y1="542.1" x2="794" y2="575.3"/>
			<line class="st0" x1="780.1" y1="551" x2="799.5" y2="552.2"/>
			<line class="st0" x1="780" y1="562.4" x2="799.5" y2="563.2"/>
			<polygon class="st0" points="597.4,445.1 597.4,354.6 597.4,352.7 620.6,361.2 620.6,448.8 600.4,444.5 			"/>
			<polygon class="st0" points="597.4,355 618.2,362.3 618.2,448.3 600.4,444.5 597.4,445.1 			"/>
			<polygon class="st0" points="597.4,357 615.3,363.5 615.3,447.7 600.4,444.5 597.4,445.1 			"/>
			<polygon class="st0" points="597.4,395.1 615.1,400.6 613.8,401.7 597.4,396.9 			"/>
			<polygon class="st0" points="597.4,398.4 615.3,403.5 615.3,402.3 597.4,396.9 			"/>
			<polygon class="st0" points="597.4,399.7 615.3,404.7 615.3,403.5 597.4,398.4 			"/>
			<line class="st0" x1="606.4" y1="360.2" x2="606.4" y2="397.9"/>
			<line class="st0" x1="597.4" y1="369.6" x2="615.3" y2="376"/>
			<line class="st0" x1="597.4" y1="383.5" x2="615.3" y2="389.5"/>
			<line class="st0" x1="606.2" y1="402" x2="606.2" y2="445.8"/>
			<line class="st0" x1="597.4" y1="414" x2="615.3" y2="418.7"/>
			<line class="st0" x1="597.4" y1="424.6" x2="615.3" y2="428.7"/>
			<line class="st0" x1="597.4" y1="435.4" x2="615.3" y2="439.2"/>
			<polygon class="st0" points="593.8,445.9 597.4,445.1 600.4,444.5 631.2,451.1 631.2,452.1 600.4,445.8 593.8,447.3 			"/>
			<polygon class="st0" points="595.3,447 595.3,448.3 596.2,448.1 600.5,447.2 628.5,453 628.6,451.6 600.4,445.8 			"/>
			<polygon class="st0" points="596.2,448.1 596.2,450.1 600.5,449.4 627.8,454.7 627.8,452.9 600.5,447.2 			"/>
			<polygon class="st0" points="597,450 597,493.4 601.2,493.1 601.4,457.2 604.5,450.1 600.5,449.4 			"/>
			<polygon class="st0" points="626.9,454.5 622,460.5 622,495.5 620.2,495.3 620.3,453.2 			"/>
			<line class="st0" x1="602.8" y1="454.1" x2="620.2" y2="457.2"/>
			<line class="st0" x1="601.7" y1="456.5" x2="618.2" y2="459.2"/>
			<line class="st0" x1="618.2" y1="456.8" x2="618.1" y2="495.1"/>
			<line class="st0" x1="597" y1="493.4" x2="597" y2="506.2"/>
			<polygon class="st0" points="601.4,507.3 601.2,493.1 628.7,496.3 627.4,498.2 627.5,507 629.1,510.4 			"/>
			<line class="st0" x1="597" y1="495.4" x2="601.2" y2="495.1"/>
			<line class="st0" x1="601.2" y1="495.2" x2="627.4" y2="498.2"/>
			<polygon class="st0" points="605.6,497.2 605.6,502.9 612.3,503.7 612.3,497.8 			"/>
			<polygon class="st0" points="615.2,498.1 615.2,504.1 622.1,504.9 622.1,498.9 			"/>
			<line class="st0" x1="597" y1="503.9" x2="601.2" y2="503.9"/>
			<line class="st0" x1="601.2" y1="503.9" x2="627.5" y2="507"/>
			<line class="st0" x1="577" y1="504.3" x2="577" y2="509.4"/>
			<polyline class="st0" points="579.6,509.5 579.5,504.3 601.4,507.3 601.2,511.7 			"/>
			<polygon class="st0" points="604.5,493.4 604.5,465.9 615.3,467.6 615.3,494.7 			"/>
			<line class="st0" x1="609.8" y1="466.7" x2="609.6" y2="494"/>
			<line class="st0" x1="604.5" y1="473.5" x2="615.3" y2="475"/>
			<line class="st0" x1="604.5" y1="483.9" x2="615.3" y2="485.2"/>
			<g>
				<polygon class="st0" points="791.7,430.9 777.8,425.9 776.4,515.7 777.2,515.7 777.2,516.5 778,516.5 778,517.9 790.3,519.3 
					791,493.8 790.5,493.8 790.5,492.1 791.1,492.2 791.1,490.9 790.6,490.8 790.6,489.2 				"/>
				<polygon class="st0" points="791,455.4 777.4,451.2 777.4,452.2 790.5,456.2 				"/>
				<polygon class="st0" points="790.5,456.2 790.4,457.2 777.4,453.6 777.4,452.2 				"/>
				<polygon class="st0" points="790.4,457.2 790.4,458.2 777.3,454.6 777.4,453.6 				"/>
				<line class="st0" x1="786.3" y1="428.9" x2="785.9" y2="453.8"/>
				<line class="st0" x1="781.4" y1="427.1" x2="781" y2="452.3"/>
				<polygon class="st0" points="790.6,489.2 776.8,486.3 776.8,487.1 790.6,490 				"/>
				<polygon class="st0" points="790.5,490.8 776.8,487.9 776.8,489.4 790.5,492.1 790.5,492.1 791.1,492.2 791.1,490.9 				"/>
				<polygon class="st0" points="790.5,492.1 790.5,493.1 776.8,490.5 776.8,489.4 				"/>
				<line class="st0" x1="785.9" y1="457.1" x2="785.4" y2="488.1"/>
				<line class="st0" x1="780.9" y1="455.6" x2="780.4" y2="487.1"/>
				<line class="st0" x1="791.6" y1="438.9" x2="777.7" y2="434.2"/>
				<line class="st0" x1="791.4" y1="447.4" x2="777.5" y2="443"/>
				<line class="st0" x1="790.8" y1="474.3" x2="777.1" y2="470.9"/>
				<line class="st0" x1="790.7" y1="481.6" x2="777" y2="478.4"/>
				<line class="st0" x1="791" y1="467.5" x2="777.3" y2="463.8"/>
				<line class="st0" x1="790.8" y1="501.7" x2="776.6" y2="499.4"/>
				<line class="st0" x1="790.8" y1="509" x2="776.5" y2="506.7"/>
				<line class="st0" x1="785.3" y1="492.1" x2="784.9" y2="518.5"/>
				<line class="st0" x1="780.3" y1="491.3" x2="779.9" y2="518.3"/>
				<path class="st0" d="M790.3,519.3l3,0.3l1.4-90.6l-15.2-5.9c0,0,1.7,2.2-0.1,3.4l-1.7-0.6l-0.1,3.4l-1.4,86.4l0.8,0l0,0.8l0.8,0
					l0,1.4L790.3,519.3z"/>
				<polygon class="st0" points="793.3,519.6 793.2,528.7 777.9,527 778,517.9 				"/>
				<polygon class="st0" points="776.4,515.7 772.1,515.6 769.7,515.6 769.7,516.3 772.1,516.4 777.2,516.5 777.2,515.7 				"/>
				<polygon class="st0" points="787.7,525.1 787.8,521.5 782.3,520.7 782.2,524.4 				"/>
				<polygon class="st0" points="732.8,514.6 725.5,513.7 725.4,517.9 732.7,518.9 				"/>
				<polygon class="st0" points="699.4,510.6 690.7,509.7 690.6,514.3 699.3,515.2 				"/>
				<polygon class="st0" points="658.8,504.4 649.1,503.1 649,508.8 658.7,510 				"/>
				<path class="st0" d="M625,448.7"/>
				<polygon class="st0" points="669,381.3 640.6,369.8 639.3,454.9 667.9,461.5 				"/>
				<polygon class="st0" points="668.6,415.7 640,406.4 640,407.7 668.5,417 				"/>
				<polygon class="st0" points="668.5,418.6 640,409.6 640,407.7 668.5,417 				"/>
				<polygon class="st0" points="668.5,420.3 640,411.4 640,409.6 668.5,418.6 				"/>
				<polygon class="st0" points="667.8,462.7 639.3,456.2 639.3,454.9 667.9,461.5 				"/>
				<polygon class="st0" points="667.8,462.7 667.8,464.4 639.2,458.1 639.3,456.2 				"/>
				<polygon class="st0" points="668.7,467.8 639.2,461.2 639.2,463.6 666.9,469.8 668.7,468.8 				"/>
				<polygon class="st0" points="667.8,464.4 668.4,464.6 668.4,465.4 667.8,465.3 639.2,459 639.2,458.1 				"/>
				<polygon class="st0" points="667.9,467.6 667.8,465.3 639.2,459 639.2,461.2 				"/>
				<line class="st0" x1="659.3" y1="377.3" x2="659" y2="412.6"/>
				<line class="st0" x1="649.8" y1="373.5" x2="649.3" y2="409.4"/>
				<line class="st0" x1="668.9" y1="393.6" x2="640.4" y2="382.8"/>
				<line class="st0" x1="668.7" y1="405.1" x2="640.2" y2="395.4"/>
				<line class="st0" x1="668.3" y1="433.4" x2="639.7" y2="425.2"/>
				<line class="st0" x1="668.2" y1="441.9" x2="639.6" y2="434.4"/>
				<line class="st0" x1="668" y1="451.1" x2="639.5" y2="444.1"/>
				<line class="st0" x1="658.8" y1="417.3" x2="658.2" y2="459.3"/>
				<line class="st0" x1="649.7" y1="414.4" x2="649" y2="457"/>
				<polygon class="st0" points="666.9,469.8 666.4,502.2 638.9,498.8 639.2,463.6 				"/>
				<line class="st0" x1="658.1" y1="467.8" x2="657.5" y2="501.1"/>
				<line class="st0" x1="648" y1="465.4" x2="647.8" y2="499.9"/>
				<line class="st0" x1="666.8" y1="478.2" x2="639" y2="472.9"/>
				<line class="st0" x1="666.6" y1="489.4" x2="639.1" y2="484.5"/>
				<polygon class="st0" points="681.8,502.6 673.4,501.2 673.4,503 681.8,504.2 				"/>
				<path class="st0" d="M683,505.9"/>
				<polygon class="st0" points="681.8,504.2 673.4,503 673.4,504.7 681.8,505.8 				"/>
				<polygon class="st0" points="680.5,502.4 682.3,390.6 706.8,399.8 705.7,471.2 705.1,508.7 683,505.9 681.8,505.8 681.8,502.6 
									"/>
				<path class="st0" d="M711.4,396.8l-26.5-9.7c0,0,1.1,3.3-2.6,3.5l-1.7,111.8l1.3,0.2l0,3.2l23.3,2.9l4.5,0.5L711.4,396.8z"/>
				<polygon class="st0" points="706.4,429.4 681.8,421.6 681.8,422.6 705.4,430.2 706.4,430.2 				"/>
				<polygon class="st0" points="705.3,431.6 681.7,424.6 681.8,422.6 705.4,430.2 				"/>
				<polygon class="st0" points="705.3,433.2 681.7,426.3 681.7,424.6 705.3,431.6 				"/>
				<line class="st0" x1="697.9" y1="396.5" x2="697.2" y2="426.5"/>
				<line class="st0" x1="689.6" y1="393.4" x2="689.4" y2="424"/>
				<line class="st0" x1="706.7" y1="409.2" x2="682.1" y2="400.2"/>
				<line class="st0" x1="706.5" y1="419.7" x2="681.9" y2="411.5"/>
				<polygon class="st0" points="705.7,471.2 681.1,465.9 681.1,467.6 705.7,472.7 				"/>
				<polygon class="st0" points="705.7,474.7 681,469.5 681.1,467.6 705.7,472.7 				"/>
				<polygon class="st0" points="705.6,476.4 681,471.4 681,469.5 705.7,474.7 				"/>
				<polygon class="st0" points="705.6,478 704.1,478.6 681,473.9 681,471.4 705.6,476.4 				"/>
				<line class="st0" x1="704.1" y1="478.6" x2="703.5" y2="508.5"/>
				<line class="st0" x1="697.2" y1="430.9" x2="696.6" y2="469.3"/>
				<line class="st0" x1="689.2" y1="428.5" x2="688.6" y2="467.5"/>
				<line class="st0" x1="706.1" y1="445.3" x2="681.5" y2="438.1"/>
				<line class="st0" x1="706" y1="453.1" x2="681.4" y2="446.8"/>
				<line class="st0" x1="705.9" y1="461.9" x2="681.3" y2="455.7"/>
				<polygon class="st0" points="778,517.9 771.9,517.7 769.6,517.7 769.7,516.3 772.1,516.4 778,516.5 				"/>
				<polygon class="st0" points="673.4,501.2 670.4,501.2 670.4,503 673.4,503 				"/>
				<line class="st0" x1="670.4" y1="502.7" x2="670.2" y2="515"/>
				<polygon class="st0" points="718,507.8 710.9,506.9 710.9,507.8 718,508.8 				"/>
				<polygon class="st0" points="718,509.7 718.7,509.7 718.7,511.2 710.8,510.4 710.8,508.7 				"/>
				<line class="st0" x1="718.7" y1="511.2" x2="718.5" y2="520.4"/>
				<polygon class="st0" points="739.1,412.3 718.8,405.2 717,507.7 718,507.8 718,508.8 718.7,508.9 718.7,509.8 738.1,512.2 				
					"/>
				<path class="st0" d="M740.4,512.6l1.6-103.9l-21.4-7.9c0,0,2.2,3.4-1.8,4.4l20.3,7l-1,100L740.4,512.6z"/>
				<line class="st0" x1="769.7" y1="516.3" x2="767" y2="516.4"/>
				<line class="st0" x1="742.7" y1="510.8" x2="740.4" y2="511.1"/>
				<polygon class="st0" points="738.8,439.6 718.3,433.1 718.3,434 738.8,440.5 				"/>
				<polygon class="st0" points="738.5,440.4 738.5,441.7 718.3,435.5 718.3,434 				"/>
				<polygon class="st0" points="737.9,443.2 718.3,437.4 718.3,435.5 737.9,441.6 				"/>
				<line class="st0" x1="731.7" y1="409.8" x2="731.2" y2="437.2"/>
				<line class="st0" x1="725" y1="407.4" x2="724.4" y2="435"/>
				<line class="st0" x1="739" y1="420.8" x2="718.7" y2="413.5"/>
				<line class="st0" x1="739" y1="431" x2="718.5" y2="424.1"/>
				<polygon class="st0" points="738.4,478.4 717.6,473.5 717.6,474.7 738.4,479.5 				"/>
				<polygon class="st0" points="738.4,480.9 717.6,476.3 717.6,474.7 738.4,479.5 				"/>
				<polygon class="st0" points="737.3,482.6 717.5,478.3 717.6,476.3 738.3,480.9 				"/>
				<polygon class="st0" points="738.3,484 736.9,484.9 717.5,480.5 717.5,478.3 737.3,482.6 738.4,483 				"/>
				<line class="st0" x1="731.2" y1="441.2" x2="730.6" y2="476.6"/>
				<line class="st0" x1="724.4" y1="439.3" x2="723.9" y2="475.1"/>
				<line class="st0" x1="738.7" y1="454" x2="718.1" y2="448.3"/>
				<line class="st0" x1="738.6" y1="461.9" x2="717.8" y2="456.5"/>
				<line class="st0" x1="738.6" y1="469.6" x2="717.7" y2="464.7"/>
				<line class="st0" x1="738.4" y1="492.5" x2="717.4" y2="488.3"/>
				<line class="st0" x1="738.2" y1="501.6" x2="717.4" y2="498.2"/>
				<line class="st0" x1="730.5" y1="483.6" x2="730.1" y2="511.2"/>
				<line class="st0" x1="723.8" y1="481.9" x2="723.3" y2="510.4"/>
				<line class="st0" x1="740.4" y1="512.6" x2="740.3" y2="522.6"/>
				<line class="st0" x1="709.6" y1="509.2" x2="709.5" y2="519.3"/>
				<line class="st0" x1="705.3" y1="433.2" x2="704.1" y2="470.9"/>
				<line class="st0" x1="737.9" y1="443.2" x2="737.3" y2="478.2"/>
				<line class="st0" x1="767.9" y1="451.6" x2="767" y2="484.9"/>
				<line class="st0" x1="696.7" y1="477.1" x2="696" y2="507.5"/>
				<line class="st0" x1="703.9" y1="486" x2="680.8" y2="482.4"/>
				<line class="st0" x1="703.7" y1="496.9" x2="680.7" y2="493.7"/>
				<line class="st0" x1="688.3" y1="475.4" x2="687.6" y2="506.5"/>
				<path class="st0" d="M779.6,423.1c0,0-3.7-5.1-6.4-3.1l-1.2,106.3"/>
				<g>
					<polygon class="st0" points="766.9,516.4 767.3,491.3 748.9,487.2 748.5,511.4 749.2,511.4 749.2,512.4 750.3,512.4 
						750.3,514.5 					"/>
					<line class="st0" x1="760.7" y1="489.8" x2="760.3" y2="515.6"/>
					<line class="st0" x1="754" y1="488.4" x2="753.2" y2="514.8"/>
					<line class="st0" x1="766.9" y1="498.5" x2="748.6" y2="495.3"/>
					<line class="st0" x1="767" y1="506.5" x2="748.7" y2="503.5"/>
					<polygon class="st0" points="763.2,518.6 756.3,517.9 756.3,521.9 763.1,522.6 					"/>
					<polygon class="st0" points="768.1,485.1 749,480.7 749,482.3 768.1,486.7 					"/>
					<polygon class="st0" points="767.3,491.3 767.3,489.3 749,485.2 748.9,487.2 					"/>
					<polygon class="st0" points="768.1,486.7 768.1,488.1 767.3,489.3 749,485.2 749,482.3 					"/>
					<polygon class="st0" points="768.1,485.1 768.7,424.5 750,417.4 749,480.7 					"/>
					<polygon class="st0" points="767.9,452.4 749.6,446.9 749.6,446 767.9,451.4 					"/>
					<polygon class="st0" points="767.9,450.2 749.6,444.8 749.6,446 767.9,451.4 					"/>
					<polygon class="st0" points="768.2,449.3 749.6,443.7 749.6,444.8 767.9,450.2 					"/>
					<path class="st0" d="M769.7,516.8l1.4-95.5l-18.2-6.9c0,0,0.7,3-2.8,3l-1.5,94l0.7,0l0,0.9l1.1,0.1l0,2l0,9.4l19.2,2.1
						L769.7,516.8z"/>
					<line class="st0" x1="761.3" y1="421.8" x2="761.4" y2="447.3"/>
					<line class="st0" x1="755.4" y1="419.5" x2="754.5" y2="445.2"/>
					<line class="st0" x1="761.6" y1="450.5" x2="761.2" y2="483.5"/>
					<line class="st0" x1="755.4" y1="448.7" x2="754.8" y2="482"/>
					<line class="st0" x1="768.2" y1="462.8" x2="749.4" y2="457.6"/>
					<line class="st0" x1="768.2" y1="469.6" x2="749.3" y2="464.5"/>
					<line class="st0" x1="768.2" y1="476.7" x2="749" y2="471.9"/>
					<line class="st0" x1="768.6" y1="431.4" x2="749.9" y2="424.7"/>
					<line class="st0" x1="768.4" y1="441.3" x2="749.8" y2="434.7"/>
					<polygon class="st0" points="768.1,488.1 749,483.8 749,482.3 768.1,486.7 					"/>
					<polygon class="st0" points="749.2,511.4 749.2,512.4 742.7,511.9 742.8,510.9 748.5,511.4 					"/>
					<polygon class="st0" points="750.3,514.5 742.7,514 742.7,511.9 750.3,512.4 					"/>
					<path class="st0" d="M752.9,414.4c0,0-1.7-6.8-8.5-3.9l-1.8,112.4"/>
				</g>
				<path class="st0" d="M720.7,400.8c0,0-3.4-5.9-7.8-3.9l-2.2,122.5"/>
				<path class="st0" d="M684.8,387.1c0,0-2.4-9.1-10.2-4l-1.4,132.2l0.1-10.6l9.6,1.3l-0.2,10.4"/>
				<line class="st0" x1="673.4" y1="504.7" x2="670.3" y2="504.7"/>
				<line class="st0" x1="710.9" y1="508.1" x2="709.6" y2="508.5"/>
			</g>
			<line class="st0" x1="638.9" y1="498.8" x2="638.9" y2="511.4"/>
			<line class="st0" x1="666.4" y1="502.2" x2="666.2" y2="514.5"/>
			<path class="st0" d="M800.2,430.4c0,0,4.2,1.1,2.9,6.1h-1.8l0.2,82.9l-4.4-0.3v-89.9L800.2,430.4z"/>
			<polygon class="st0" points="793.3,519.6 797,519.2 801.4,519.4 801.4,520.5 797,520.3 793.3,520.9 			"/>
			<polygon class="st0" points="801.4,520.5 801.4,522.3 803,522.7 802.9,529.8 796.8,529.1 797,520.4 			"/>
			<polygon class="st0" points="810.2,381.6 844.6,400.2 844.6,402 810.2,383.4 			"/>
			<polygon class="st0" points="806.5,386.6 843.9,406.3 843.9,401.6 810.2,383.4 			"/>
			<polygon class="st0" points="805,387.8 845.1,408.7 846.4,407.6 806.5,386.6 			"/>
			<polygon class="st0" points="845.1,408.7 845.1,411.8 802.5,389.7 805,387.8 			"/>
			<path class="st0" d="M799.5,397.4c0-0.3,40.6,20,40.6,20v-8.2l-37.6-19.5l-1.5,1.2l-1.4,3.3L799.5,397.4z"/>
			<polygon class="st0" points="844.3,411.4 844.6,441.4 805,425.3 801.6,425.9 801.6,423.8 803,424.4 803,422.5 799,420.9 
				799.6,394.2 801,390.9 802.5,389.7 			"/>
			<line class="st0" x1="557.9" y1="505.8" x2="557.9" y2="511.3"/>
			<line class="st0" x1="597" y1="506.2" x2="597" y2="511.4"/>
			<line class="st0" x1="629.1" y1="510.4" x2="629.1" y2="514.7"/>
			<polygon class="st0" points="805.8,403 809.9,405 809.6,425.3 805.4,423.8 			"/>
			<polygon class="st0" points="815.3,407.6 819.3,409.5 819.3,429.2 815.3,427.4 			"/>
			<polygon class="st0" points="824.2,411.7 828.4,413.8 828.4,432.9 824.2,431.2 			"/>
			<polygon class="st0" points="833.9,416.2 838.9,418.6 838.9,437.3 833.9,435.2 			"/>
			<line class="st0" x1="805.7" y1="408.2" x2="809.8" y2="409.9"/>
			<line class="st0" x1="805.5" y1="415.9" x2="809.7" y2="417.5"/>
			<line class="st0" x1="815.3" y1="412.4" x2="819.3" y2="414"/>
			<line class="st0" x1="815.3" y1="419.7" x2="819.3" y2="421.3"/>
			<line class="st0" x1="824.2" y1="416.7" x2="828.4" y2="418.4"/>
			<line class="st0" x1="824.2" y1="423.6" x2="828.4" y2="425.3"/>
			<line class="st0" x1="833.9" y1="421.2" x2="838.9" y2="423.5"/>
			<line class="st0" x1="833.9" y1="428.4" x2="838.9" y2="430.4"/>
			<line class="st0" x1="835.5" y1="467.1" x2="839.7" y2="468.2"/>
			<line class="st0" x1="835.5" y1="473.3" x2="839.7" y2="474.2"/>
			<polygon class="st0" points="801.4,509.7 843.2,517.4 843.2,515.1 801.4,507.4 			"/>
			<g>
				<polyline class="st0" points="805.2,580.9 805.2,540.1 829.3,539.1 829.3,536.4 805.2,534 579.6,514.7 577.3,514.7 291,537.4 
					290.8,577.6 				"/>
				<polygon class="st0" points="800.2,430.4 800.1,427 800.1,425.3 801.6,425.9 805,425.3 844.6,441.4 851.1,444.1 851.1,446 
					805,427.7 800.1,428.2 				"/>
				<path class="st0" d="M848.6,445l-6.6,7.6v58l-40.6-7.8l-0.2-66.2h1.8c0,0,1.7-4.5-2.9-6.1l-0.1-2.2l4.9-0.5L848.6,445z"/>
				<polygon class="st0" points="801.2,437.6 842,452.5 842,455 801.2,440.7 				"/>
				<polygon class="st0" points="801.3,450.5 805.6,451.8 805.6,471.3 801.3,470.2 				"/>
				<polygon class="st0" points="810.3,453.6 815,455 815,473.5 810.3,472.2 				"/>
				<polygon class="st0" points="818.9,456 823.7,457.5 823.7,475.5 819,474.5 				"/>
				<polygon class="st0" points="827.3,459.3 831.6,460.9 831.6,478.1 827.3,477.1 				"/>
				<polygon class="st0" points="835.5,462.1 839.7,463.4 839.7,480.7 835.5,479.5 				"/>
				<polygon class="st0" points="801.3,484.3 805.6,485.3 805.6,503.5 801.4,502.7 				"/>
				<polygon class="st0" points="810.3,486.3 815,487.2 815,505.3 810.3,504.4 				"/>
				<polygon class="st0" points="819.4,488.2 823.7,489.2 823.7,507 819.3,506.2 				"/>
				<polygon class="st0" points="827.3,490.3 831.6,491.2 831.6,508.5 827.3,507.7 				"/>
				<polygon class="st0" points="835.5,492.2 839.7,493.1 839.7,510.1 835.5,509.3 				"/>
				<line class="st0" x1="801.3" y1="456.1" x2="805.6" y2="457.2"/>
				<line class="st0" x1="801.3" y1="462.3" x2="805.6" y2="463.4"/>
				<line class="st0" x1="810.3" y1="458.7" x2="815" y2="460.1"/>
				<line class="st0" x1="810.3" y1="465.3" x2="815" y2="466.7"/>
				<line class="st0" x1="818.9" y1="461.3" x2="823.7" y2="462.6"/>
				<line class="st0" x1="819.1" y1="467.7" x2="823.7" y2="469.1"/>
				<line class="st0" x1="827.3" y1="464.4" x2="831.6" y2="465.7"/>
				<line class="st0" x1="827.3" y1="470.7" x2="831.6" y2="472"/>
				<line class="st0" x1="801.3" y1="490.5" x2="805.6" y2="491.3"/>
				<line class="st0" x1="801.3" y1="496.4" x2="805.6" y2="497.2"/>
				<line class="st0" x1="810.3" y1="491.9" x2="815" y2="492.8"/>
				<line class="st0" x1="810.3" y1="498.1" x2="815" y2="499"/>
				<line class="st0" x1="819.3" y1="493.6" x2="823.7" y2="494.4"/>
				<line class="st0" x1="819.3" y1="500.4" x2="823.6" y2="501.1"/>
				<line class="st0" x1="827.3" y1="495.4" x2="831.6" y2="496.2"/>
				<line class="st0" x1="827.3" y1="501.9" x2="831.6" y2="502.7"/>
				<line class="st0" x1="835.5" y1="497.6" x2="839.7" y2="498.2"/>
				<line class="st0" x1="835.4" y1="503.2" x2="839.7" y2="503.8"/>
				<polygon class="st0" points="801.4,502.7 842.4,510.6 845.4,511.2 845.4,512.4 801.4,504.3 				"/>
				<polygon class="st0" points="801.4,504.3 844.7,512.3 844.7,513.7 801.4,506 				"/>
				<polygon class="st0" points="801.4,507.4 843.2,515.1 843.2,513.4 801.4,506 				"/>
				<polyline class="st0" points="801.4,509.7 843.2,517.4 843.6,544 805.2,541.8 805.2,540.1 829.3,539.1 829.3,536.4 805.2,534 
					805.2,532.4 805.7,530.1 802.9,529.8 803,522.7 801.4,522.3 797,522.1 				"/>
				<polygon class="st0" points="804.4,515.5 807.7,516.2 807.7,534.3 805.2,534 805.2,532.4 805.7,530.1 804.4,530 				"/>
				<polygon class="st0" points="809.4,516.5 812.6,517.2 812.7,534.8 809.3,534.4 				"/>
				<polygon class="st0" points="814.5,517.4 817.9,517.9 817.8,535.3 814.4,534.9 				"/>
				<polygon class="st0" points="821.8,518.5 821.7,535.7 818.9,535.3 819,518.1 				"/>
				<polygon class="st0" points="823.2,518.5 826.3,518.9 826.3,536.1 823.1,535.8 				"/>
				<polygon class="st0" points="828.2,519.4 831,519.8 831,536.6 828.2,536.3 				"/>
				<polygon class="st0" points="832.2,520 835.1,520.5 835.1,537.3 832.2,537 				"/>
				<polygon class="st0" points="836.3,520.6 839.1,521.1 839.1,537.8 836.3,537.5 				"/>
				<polygon class="st0" points="846.8,545.9 846.8,550.5 846.8,581.1 805.2,580.9 805.2,541.8 843.6,544 843.6,545.7 				"/>
				<line class="st0" x1="586.4" y1="518.9" x2="829.3" y2="539.1"/>
				<polygon class="st0" points="807,547.8 844.9,549.6 844.8,577.3 807,576.9 				"/>
				<line class="st0" x1="811.7" y1="548" x2="811.6" y2="577"/>
				<line class="st0" x1="816.6" y1="548.2" x2="816.7" y2="576.9"/>
				<line class="st0" x1="821.9" y1="548.3" x2="822" y2="577.1"/>
				<line class="st0" x1="827.2" y1="548.6" x2="827.3" y2="577.3"/>
				<line class="st0" x1="832.4" y1="548.9" x2="832.5" y2="577.3"/>
				<line class="st0" x1="837.2" y1="549.2" x2="837.3" y2="577.3"/>
				<line class="st0" x1="841.4" y1="549.3" x2="841.4" y2="577.3"/>
				<line class="st0" x1="807" y1="554.4" x2="844.9" y2="555.8"/>
				<line class="st0" x1="807" y1="569" x2="844.8" y2="569.9"/>
				<polygon class="st0" points="801.2,431 804.5,430.7 846.4,447.5 848.6,445 805,427.7 800.1,428.2 800.2,430.4 				"/>
			</g>
			<path class="st0" d="M842,477.4"/>
			<path class="st0" d="M842,483.3"/>
			<line class="st0" x1="790.4" y1="458.2" x2="789.9" y2="489.2"/>
			<path class="st0" d="M847.5,534.9"/>
			<path class="st0" d="M847.3,516.1"/>
			<g>
				<path class="st0" d="M851.8,535.1"/>
				<path class="st0" d="M851.4,516.8"/>
			</g>
			<line class="st0" x1="804.4" y1="519.4" x2="807.7" y2="520"/>
			<line class="st0" x1="804.4" y1="526.6" x2="807.7" y2="527"/>
			<line class="st0" x1="809.4" y1="520" x2="812.7" y2="520.6"/>
			<line class="st0" x1="809.3" y1="527" x2="812.5" y2="527.4"/>
			<line class="st0" x1="814.3" y1="520.7" x2="817.9" y2="521.3"/>
			<line class="st0" x1="814.4" y1="527.5" x2="817.9" y2="528"/>
			<line class="st0" x1="819" y1="521.3" x2="821.8" y2="521.7"/>
			<line class="st0" x1="818.9" y1="528.3" x2="821.8" y2="528.7"/>
			<line class="st0" x1="823.2" y1="521.9" x2="826.3" y2="522.3"/>
			<line class="st0" x1="823.1" y1="528.8" x2="826.3" y2="529.1"/>
			<line class="st0" x1="828.2" y1="522.7" x2="831" y2="523"/>
			<line class="st0" x1="828.3" y1="529.2" x2="831" y2="529.6"/>
			<line class="st0" x1="832.2" y1="523.1" x2="835.1" y2="523.5"/>
			<line class="st0" x1="832.2" y1="530.1" x2="835.1" y2="530.5"/>
			<line class="st0" x1="836.3" y1="523.8" x2="839.1" y2="524.4"/>
			<line class="st0" x1="836.3" y1="530.6" x2="839.1" y2="531"/>
		</g>
		<polyline class="st0" points="578.3,286.4 581.3,284.8 799.6,394.2 		"/>
		<line class="st0" x1="577.1" y1="514.7" x2="577.1" y2="579.4"/>
		<line class="st0" x1="579.6" y1="514.7" x2="579.6" y2="579.4"/>
		<line class="st0" x1="232.9" y1="468.4" x2="232.5" y2="470"/>
		<line class="st0" x1="233" y1="473.2" x2="233.2" y2="533.7"/>
		<line class="st0" x1="229.9" y1="463.6" x2="229.8" y2="464.7"/>
		<line class="st0" x1="293.4" y1="446.2" x2="293.4" y2="447.1"/>
		<line class="st0" x1="579.6" y1="514.7" x2="586.5" y2="518.9"/>
		<polygon class="st0" points="231.5,577.2 846.8,581.1 846.8,590.4 231.5,587.2 		"/>
	</g>
	<g>
		<g>
			<path class="st1" d="M74.2,734.2c7.4-0.8,10.2-1.9,10.2-11.8v-49.5c0-9.9-2.8-11.2-10-11.8v-0.9h34.6v0.9
				c-7.4,0.5-10,1.9-10,11.8v53.8c0,3.5,1,4.1,8.7,4l11.5-0.1c14.7-0.2,21.3-12.1,21.6-15.4h1.1c0,3.2-1.5,4.5-7.6,19.8H74.2V734.2z
				"/>
			<path class="st1" d="M156,707.2v-34.3c0-9.9-2.8-11.2-10-11.8v-0.9h34.7v0.9c-7.2,0.5-10,1.9-10,11.8v33.2
				c0,16.8,8.8,24.3,21.6,24.3c13.3,0,22.2-8.1,22.2-24.7v-32.9c0-9.9-3.1-11.2-10.3-11.8v-0.9h25v0.9c-7.2,0.5-10.2,1.9-10.2,11.8
				v32.8c0,19.4-11,30.9-31.6,30.9C170.1,736.6,156,727.3,156,707.2z"/>
			<path class="st1" d="M238.7,697.7c0-21.3,16.7-38.9,42.3-38.9c8.6,0,16,2.8,19.1,4.1c0.8,0.3,2,0.7,2.7,0.7c2.4,0,3.6-2,3.4-4.9
				h1.2l3.5,26.2h-1.2c-3.5-13.5-14.6-22.4-28.4-22.4c-15.3,0-26,12.3-26,33c0,21.5,11.9,34.9,29.8,34.9c10.6,0,19.2-4.9,25.9-11.7
				l1.1,0.8c-5.8,8.4-15.6,17-32.1,17C254.6,736.6,238.7,718,238.7,697.7z"/>
			<path class="st1" d="M328.5,734.2c8.5-0.8,10-1.9,10-11.8v-49.5c0-9.9-1.3-11-10.2-11.8v-0.9H363v0.9c-8.6,0.8-9.8,1.9-9.8,11.8
				v49.5c0,9.9,1.2,11,9.7,11.8v0.9h-34.4V734.2z M375.3,734.2c5.6-0.4,6.9-2.4,7-4.6c0.1-2.2-2.3-4.6-6.3-8.8l-22.3-23.6
				c19.5-18.1,29.9-28.2,29.9-32.5c0-1.3-1.3-3.2-6.6-3.5v-0.9h26.4v0.9c-7.2,0.4-10.3,2.2-15.5,8c-7.6,8.6-13.4,14.5-21.7,21.9
				l30.5,32.3c6.8,7.3,11.1,9.8,18,10.8v0.9h-39.4V734.2z"/>
			<path class="st1" d="M421.1,734.2c8-0.9,9.9-2.1,9.9-11.8V673c0-9.9-1.6-11.1-10.2-11.9v-0.9h60.3l0.9,17h-1.1
				c-2.7-10.6-5.3-13-16-13.1l-19.3-0.2v29.7l15.2-0.1c9.3-0.1,12.7-2.8,13.2-10.9h1.1v26.1h-1.1c-0.5-8-3.6-10.8-13.2-10.9
				l-15.2-0.3v29.3c0,2.9,1.4,4.3,5.8,4.3l17-0.2c14.7-0.1,19.7-12.7,20-15.3h1.1c0.1,3.4-0.8,4.6-6.4,19.5h-61.9V734.2z"/>
			<path class="st1" d="M517,734.2c8.3-0.8,10.2-2.2,10.2-11.8V703l-22.6-33.4c-4.1-6.3-7.4-7.8-11.6-8.4v-0.9h34.7v0.9
				c-6.6,0.4-8.1,2.1-8.1,4.4c0,1.6,1.6,4.4,4,7.9l15.9,24.1l15.2-22.6c3.2-4.7,4.5-7.8,4.5-9.4c0-2.1-2-3.9-8.2-4.4v-0.9h25.2v0.9
				c-4.7,0.5-8.2,2.5-12.2,8.4l-22.4,33.1v19.8c0,9.6,1.7,11,10,11.8v0.9H517V734.2z"/>
			<path class="st1" d="M618.1,734.2c8.2-1.1,9.9-2.1,9.9-11.8v-49.9c0-9.6-1.7-10.4-10-11.4v-0.9h32.3c20.4,0,30.9,11.2,30.9,21.4
				c0,14.3-10.7,21.1-25.1,21.1c-5.8,0-11.2-1.9-13.6-3.7v23.4c0,9.7,2.4,10.8,9.8,11.8v0.9h-34.2V734.2z M665.4,681.9
				c-0.2-12.8-8.5-18.5-17.4-18.5c-2.3,0-4.1,0.4-5.3,1.1v32c1.9,1.2,4.6,2.5,8.6,2.5C658.1,699,665.6,693.6,665.4,681.9z"/>
			<path class="st1" d="M693.7,734.2c7.4-0.8,10.2-1.9,10.2-11.8v-49.5c0-9.9-2.8-11.2-10-11.8v-0.9h34.6v0.9
				c-7.4,0.5-10,1.9-10,11.8v53.8c0,3.5,1,4.1,8.7,4l11.5-0.1c14.7-0.2,21.3-12.1,21.6-15.4h1.1c0,3.2-1.5,4.5-7.6,19.8h-59.9V734.2
				z"/>
			<path class="st1" d="M767.3,734.2c6.3-0.7,8.4-2,11.6-8.6l31.8-67.9l32.4,68c3.1,6.3,4.7,7.8,11.2,8.5v0.9h-34.7v-0.9
				c5.5-0.4,8.3-1.3,8.3-5.1c0-1.9-0.8-3.7-2-6.2l-5.2-11.2h-30.6l-4.7,10.4c-1,2.2-2.2,5-2.2,7c0,3.4,2.7,4.7,8.7,5.2v0.9h-24.7
				V734.2z M818.8,707.8l-13.8-28.6l-13.2,28.6H818.8z"/>
			<path class="st1" d="M868.5,734.2c8.3-0.9,10-2,10-11.8v-58.2l-11.9,0.1c-9.8,0.1-14.4,5.5-14.7,13.2h-1.1
				c-0.1-6.9,0.4-10.8,1.5-17.2h67.3c1.1,6.4,1.7,10.4,1.5,17.2h-1.2c-0.5-7.8-4.5-13.1-14.7-13.2l-11.9-0.1v58.2
				c0,9.8,2,10.9,10.2,11.8v0.9h-34.9V734.2z"/>
			<path class="st1" d="M949.5,734.2c8.3-0.9,10-2,10-11.8v-58.2l-11.9,0.1c-9.8,0.1-14.4,5.5-14.7,13.2h-1.1
				c-0.1-6.9,0.4-10.8,1.5-17.2h67.3c1.1,6.4,1.7,10.4,1.5,17.2h-1.2c-0.5-7.8-4.5-13.1-14.7-13.2l-11.9-0.1v58.2
				c0,9.8,2,10.9,10.2,11.8v0.9h-34.9V734.2z"/>
			<path class="st1" d="M253,828.4v3.8h-21.2v-24.7h4.4v21H253z"/>
			<path class="st1" d="M260.1,819.8c0-7.7,5.4-12.8,13.5-12.8c8.2,0,13.6,5.1,13.6,12.8s-5.4,12.8-13.6,12.8
				C265.5,832.6,260.1,827.5,260.1,819.8z M282.7,819.8c0-5.3-3.6-8.9-9.1-8.9c-5.4,0-9.1,3.6-9.1,8.9s3.7,8.9,9.1,8.9
				C279,828.7,282.7,825.1,282.7,819.8z"/>
			<path class="st1" d="M301.3,811.2v6.9h15.2v3.8h-15.2v10.3h-4.4v-24.7h21.9v3.8H301.3z"/>
			<path class="st1" d="M349.8,811.2h-9.6v21h-4.4v-21h-9.6v-3.8h23.5V811.2z"/>
			<path class="st1" d="M356.9,829.1l1.9-3.5c2.9,2.1,6.5,3.2,10.3,3.2c4.6,0,7-1.2,7-3.7c0-2-1.8-2.8-7.3-3.2
				c-7.9-0.6-10.8-2.5-10.8-7.2c0-4.8,4-7.6,10.9-7.6c4.1,0,7.5,1,10.3,3l-1.7,3.4c-2.4-1.7-5.3-2.5-8.6-2.5c-4,0-6.4,1.3-6.4,3.6
				c0,2,1.7,2.8,7.2,3.2c8,0.6,10.9,2.5,10.9,7.2c0,5-4,7.7-11.5,7.7C364.3,832.6,360.1,831.4,356.9,829.1z"/>
			<path class="st1" d="M422.9,826.3h-12.4l-2.7,5.9h-4.6l11.4-24.7h4.5l11.4,24.7h-4.8L422.9,826.3z M412.1,822.6h9.2l-4.6-10.6
				L412.1,822.6z"/>
			<path class="st1" d="M462.9,807.5v24.7h-4.1l-15.2-19.8v19.8h-4.2v-24.7h5.5l13.8,17.9v-17.9H462.9z"/>
			<path class="st1" d="M497.9,819.8c0,7.6-4.9,12.4-12.8,12.4h-11.3v-24.7h11.3C493,807.5,497.9,812.2,497.9,819.8z M493.4,819.8
				c0-5.4-3.3-8.6-8.8-8.6h-6.4v17.2h6.4C490.1,828.4,493.4,825.2,493.4,819.8z"/>
			<path class="st1" d="M540.5,826.3h-12.4l-2.7,5.9h-4.6l11.4-24.7h4.5l11.4,24.7h-4.8L540.5,826.3z M529.7,822.6h9.2l-4.6-10.6
				L529.7,822.6z"/>
			<path class="st1" d="M579.8,815.3c0,5.1-3.1,7.9-8.8,7.9h-9.7v9.1h-4.4v-24.7H571C576.7,807.5,579.8,810.2,579.8,815.3z
				 M575.3,815.3c0-2.7-1.6-4-4.9-4h-9.1v8.1h9.1C573.7,819.4,575.3,818,575.3,815.3z"/>
			<path class="st1" d="M604,826.3h-12.4l-2.7,5.9h-4.6l11.4-24.7h4.5l11.4,24.7h-4.8L604,826.3z M593.2,822.6h9.2l-4.6-10.6
				L593.2,822.6z"/>
			<path class="st1" d="M639.5,832.2l-6.8-9.7h-8v9.7h-4.4v-24.7h14.8c5.5,0,8.4,2.7,8.4,7.5c0,4-2,6.5-5.8,7.3l7,9.9H639.5z
				 M624.7,818.7h9.8c3.1,0,4.6-1.2,4.6-3.7c0-2.5-1.5-3.7-4.6-3.7h-9.8V818.7z"/>
			<path class="st1" d="M675.6,811.2H666v21h-4.4v-21H652v-3.8h23.5V811.2z"/>
			<path class="st1" d="M714.3,832.2h-4.4v-19.6l-8.9,19.6h-3.2l-8.9-19.6v19.6h-4.2v-24.7h6.3l8.6,18.9l8.6-18.9h6.3V832.2z"/>
			<path class="st1" d="M729.7,811.2v6.6h15.2v3.8h-15.2v6.8h17.5v3.8h-21.9v-24.7h21.9v3.8H729.7z"/>
			<path class="st1" d="M780.3,807.5v24.7h-4.1l-15.2-19.8v19.8h-4.2v-24.7h5.5l13.8,17.9v-17.9H780.3z"/>
			<path class="st1" d="M812.9,811.2h-9.6v21h-4.4v-21h-9.6v-3.8h23.5V811.2z"/>
			<path class="st1" d="M820,829.1l1.9-3.5c2.9,2.1,6.5,3.2,10.3,3.2c4.6,0,7-1.2,7-3.7c0-2-1.8-2.8-7.3-3.2
				c-7.9-0.6-10.8-2.5-10.8-7.2c0-4.8,4-7.6,10.9-7.6c4.1,0,7.5,1,10.3,3l-1.7,3.4c-2.4-1.7-5.3-2.5-8.6-2.5c-4,0-6.4,1.3-6.4,3.6
				c0,2,1.7,2.8,7.2,3.2c8,0.6,10.9,2.5,10.9,7.2c0,5-4,7.7-11.5,7.7C827.4,832.6,823.2,831.4,820,829.1z"/>
		</g>
	</g>
</g>
</svg>
